{"title":"Raise the Red Lantern (1991) Da hong deng long gao gao gua 720p","uid":11740197,"size":1200950836,"categoryP":"video","categoryS":"hd___movies","magnet":"?xt=urn:btih:f3b85a7b63fdc60c0d054ec9b23d32eb41440a59&amp;dn=Raise+the+Red+Lantern+%281991%29+Da+hong+deng+long+gao+gao+gua+720p&amp;tr=udp%3A%2F%2Ftracker.openbittorrent.com%3A80&amp;tr=udp%3A%2F%2Fopen.demonii.com%3A1337&amp;tr=udp%3A%2F%2Ftracker.coppersurfer.tk%3A6969&amp;tr=udp%3A%2F%2Fexodus.desync.com%3A6969","seeders":6,"leechers":0,"uploader":"am006am","files":2,"time":1425754746,"description":"General\nFormat                      : MPEG-4\nFormat profile              : Base Media / Version 2\nCodec ID                    : mp42\nFile size                   : 1.12 GiB\nDuration                    : 2h 4mn\nOverall bit rate mode       : Variable\nOverall bit rate            : 1 284 Kbps\n\nVideo\nID                          : 1\nFormat                      : AVC\nFormat/Info                 : Advanced Video Codec\nFormat profile              : &lt;a class=&quot;__cf_email__&quot; href=&quot;/cdn-cgi/l/email-protection&quot; data-cfemail=&quot;723a1b151a323e415c43&quot;&gt;[email&amp;#160;protected]&lt;/a&gt;&lt;script cf-hash='f9e31' type=&quot;text/javascript&quot;&gt;\n/* &lt;![CDATA[ */!function(){try{var t=&quot;currentScript&quot;in document?document.currentScript:function(){for(var t=document.getElementsByTagName(&quot;script&quot;),e=t.length;e--;)if(t[e].getAttribute(&quot;cf-hash&quot;))return t[e]}();if(t&amp;&amp;t.previousSibling){var e,r,n,i,c=t.previousSibling,a=c.getAttribute(&quot;data-cfemail&quot;);if(a){for(e=&quot;&quot;,r=parseInt(a.substr(0,2),16),n=2;a.length-n;n+=2)i=parseInt(a.substr(n,2),16)^r,e+=String.fromCharCode(i);e=document.createTextNode(e),c.parentNode.replaceChild(e,c)}}}catch(u){}}();/* ]]&gt; */&lt;/script&gt;\nFormat settings, CABAC      : Yes\nFormat settings, ReFrames   : 1 frame\nFormat settings, GOP        : M=1, N=60\nCodec ID                    : avc1\nCodec ID/Info               : Advanced Video Coding\nDuration                    : 2h 4mn\nBit rate                    : 1 090 Kbps\nMaximum bit rate            : 3 379 Kbps\nWidth                       : 1 280 pixels\nHeight                      : 688 pixels\nDisplay aspect ratio        : 1.85:1\nFrame rate mode             : Constant\nFrame rate                  : 24.000 fps\nColor space                 : YUV\nChroma subsampling          : 4:2:0\nBit depth                   : 8 bits\nScan type                   : Progressive\nBits/(Pixel*Frame)          : 0.052\nStream size                 : 972 MiB (85%)\n\nAudio\nID                          : 2\nFormat                      : AAC\nFormat/Info                 : Advanced Audio Codec\nFormat profile              : LC\nCodec ID                    : 40\nDuration                    : 2h 4mn\nBit rate mode               : Variable\nBit rate                    : 192 Kbps\nMaximum bit rate            : 202 Kbps\nChannel(s)                  : 2 channels\nChannel positions           : Front: L R\nSampling rate               : 44.1 KHz\nCompression mode            : Lossy\nStream size                 : 171 MiB (15%)\n\nLanguage                    : Mandarin\nSubtitle                    : English","torrent":{"xt":"urn:btih:f3b85a7b63fdc60c0d054ec9b23d32eb41440a59","amp;dn":"Raise+the+Red+Lantern+%281991%29+Da+hong+deng+long+gao+gao+gua+720p","amp;tr":["udp%3A%2F%2Ftracker.openbittorrent.com%3A80","udp%3A%2F%2Fopen.demonii.com%3A1337","udp%3A%2F%2Ftracker.coppersurfer.tk%3A6969","udp%3A%2F%2Fexodus.desync.com%3A6969"],"infoHash":"f3b85a7b63fdc60c0d054ec9b23d32eb41440a59","infoHashBuffer":{"type":"Buffer","data":[243,184,90,123,99,253,198,12,13,5,78,201,178,61,50,235,65,68,10,89]},"announce":[],"urlList":[]}}